<svg width="33" height="22" viewBox="0 0 33 22" fill="none" xmlns="http://www.w3.org/2000/svg">
<path d="M10.9609 0.347656C12.6026 0.347756 14.2047 0.852763 15.5498 1.79395C16.895 2.73526 17.9179 4.06786 18.4805 5.61035C19.043 7.15277 19.1177 8.83074 18.6943 10.417C18.2709 12.0033 17.3697 13.4216 16.1133 14.4785L15.6904 14.834L16.1943 15.0615C18.2638 15.9981 20.0445 17.4722 21.3516 19.3301L21.3564 19.3369L21.3623 19.3438C21.4638 19.4738 21.538 19.6236 21.5801 19.7832C21.6221 19.9427 21.6307 20.1093 21.6064 20.2725C21.5822 20.4356 21.525 20.592 21.4385 20.7324C21.3519 20.8728 21.2384 20.9949 21.1035 21.0898C20.9687 21.1848 20.8156 21.251 20.6543 21.2852C20.4929 21.3193 20.3259 21.3203 20.1641 21.2881C20.0022 21.2559 19.848 21.1911 19.7119 21.0977H19.7129C19.5768 21.0043 19.4603 20.8846 19.3721 20.7451L19.3682 20.7383L19.3633 20.7314L19.1816 20.4814C18.2576 19.2461 17.0665 18.2332 15.6953 17.5205C14.2329 16.7605 12.609 16.3634 10.9609 16.3633C9.31268 16.3633 7.68811 16.7604 6.22559 17.5205C4.76302 18.2807 3.50478 19.3824 2.55762 20.7314L2.55664 20.7324C2.44532 20.8922 2.29676 21.0224 2.12402 21.1123C1.95121 21.2022 1.75926 21.2496 1.56445 21.249H1.5625C1.31261 21.2498 1.06854 21.1717 0.865234 21.0264L0.863281 21.0254L0.768555 20.9512C0.557076 20.7681 0.414489 20.5163 0.366211 20.2383C0.317961 19.9602 0.367475 19.6753 0.504883 19.4316L0.569336 19.3301C1.8764 17.4722 3.65705 15.9981 5.72656 15.0615L6.23047 14.834L5.80762 14.4785C4.55119 13.4216 3.65002 12.0033 3.22656 10.417C2.8032 8.83074 2.87794 7.15277 3.44043 5.61035C4.00296 4.06786 5.02586 2.73526 6.37109 1.79395C7.71632 0.852669 9.3191 0.347656 10.9609 0.347656ZM21.5967 0.357422H21.5986C23.2414 0.352725 24.8459 0.855199 26.1934 1.79492C27.5407 2.7347 28.5658 4.06717 29.1289 5.61035C29.6919 7.1534 29.7661 8.83242 29.3408 10.4189C28.9153 12.0057 28.0107 13.4231 26.751 14.4775L26.3262 14.833L26.8311 15.0615C28.9006 15.9981 30.6812 17.4722 31.9883 19.3301L31.9902 19.332C32.083 19.4618 32.149 19.6091 32.1846 19.7646C32.2201 19.9203 32.2246 20.0819 32.1973 20.2393C32.1699 20.3966 32.1113 20.547 32.0254 20.6816C31.9394 20.8163 31.8275 20.9324 31.6963 21.0234L31.6924 21.0264C31.4891 21.1717 31.245 21.2489 30.9951 21.248C30.8 21.2467 30.6076 21.1994 30.4346 21.1094C30.2613 21.0191 30.112 20.8888 29.999 20.7295C29.05 19.3834 27.7918 18.2844 26.3301 17.5254C24.9594 16.8136 23.4473 16.42 21.9062 16.3721L21.5977 16.3672L21.4766 16.3613C21.1979 16.3336 20.9361 16.2104 20.7363 16.0107C20.5079 15.7823 20.3789 15.4724 20.3789 15.1494C20.3789 14.8263 20.5079 14.5165 20.7363 14.2881C20.9648 14.0597 21.2747 13.9316 21.5977 13.9316C23.0744 13.9315 24.4909 13.344 25.5352 12.2998C26.5792 11.2555 27.166 9.83901 27.166 8.3623C27.1659 6.88557 26.5794 5.46903 25.5352 4.4248C24.556 3.44568 23.2495 2.86898 21.873 2.80078L21.5977 2.79395C21.0885 2.79301 20.5814 2.86327 20.0918 3.00293L19.9707 3.0332C19.8522 3.05605 19.7308 3.06075 19.6104 3.04785C19.4497 3.03064 19.2939 2.98222 19.1523 2.9043C19.011 2.82644 18.8865 2.72111 18.7861 2.59473C18.6857 2.46818 18.6111 2.32252 18.5674 2.16699C18.5236 2.01148 18.5115 1.84882 18.5312 1.68848C18.551 1.52819 18.6026 1.37365 18.6826 1.2334C18.7627 1.0931 18.8699 0.96955 18.998 0.871094C19.1261 0.772747 19.2726 0.700482 19.4287 0.65918L19.4346 0.658203C20.1377 0.458011 20.8656 0.356208 21.5967 0.357422ZM12.0469 2.90137C10.9667 2.6865 9.84662 2.7963 8.8291 3.21777C7.81173 3.63924 6.94191 4.35294 6.33008 5.26855C5.71826 6.18421 5.39167 7.26106 5.3916 8.3623C5.3916 9.83898 5.97841 11.2555 7.02246 12.2998C8.06677 13.3441 9.48406 13.9316 10.9609 13.9316C12.0619 13.9315 13.1382 13.6047 14.0537 12.9932C14.9695 12.3813 15.684 11.5107 16.1055 10.4932C16.5268 9.4758 16.6367 8.35636 16.4219 7.27637C16.207 6.19621 15.6772 5.20357 14.8984 4.4248C14.1197 3.64605 13.127 3.11625 12.0469 2.90137Z" fill="#4CAF4F" stroke="#4CAF4F" stroke-width="0.696069"/>
</svg>
